#N canvas 719 255 450 300 10;
#X obj 98 99 osc~ 440;
#X obj 98 208 dac~;
#X obj 142 169 *~;
#X obj 140 127 adc~;
#X obj 98 169 *~ 0.5;
#X connect 0 0 2 0;
#X connect 0 0 4 0;
#X connect 2 0 1 1;
#X connect 3 0 4 1;
#X connect 3 1 2 1;
#X connect 4 0 1 0;
