#N canvas 795 205 710 467 12;
#X floatatom 326 127 0 0 0 0 - - - 0;
#X obj 150 262 r frequency;
#X msg 326 98 set \$1;
#X floatatom 52 127 0 0 0 0 - - - 0;
#X obj 52 69 r frequency;
#X msg 52 98 set \$1;
#X obj 65 151 s frequency;
#X obj 326 69 r pitch;
#X obj 335 151 s pitch;
#X obj 326 177 mtof;
#X obj 326 206 s frequency;
#X obj 52 206 s pitch;
#X obj 52 177 ftom;
#X text 152 195 to "MIDI" pitch;
#X obj 92 339 output~;
#X obj 150 298 osc~;
#X text 97 177 <= convert frequency;
#X text 100 127 <= set frequency;
#X text 370 126 <= set MIDI pitch;
#X text 373 178 <= convert "MIDI" pitch to frequency;
#X connect 0 0 8 0;
#X connect 0 0 9 0;
#X connect 1 0 15 0;
#X connect 2 0 0 0;
#X connect 3 0 6 0;
#X connect 3 0 12 0;
#X connect 4 0 5 0;
#X connect 5 0 3 0;
#X connect 7 0 2 0;
#X connect 9 0 10 0;
#X connect 12 0 11 0;
#X connect 15 0 14 0;
#X connect 15 0 14 1;
